<svg xmlns="http://www.w3.org/2000/svg" version="1.1" xmlns:xlink="http://www.w3.org/1999/xlink" xmlns:svgjs="http://svgjs.com/svgjs" width="1440" height="560" preserveAspectRatio="none" viewBox="0 0 1440 560"><g mask="url(&quot;#SvgjsMask1748&quot;)" fill="none"><rect width="1440" height="560" x="0" y="0" fill="url(#SvgjsLinearGradient1749)"></rect><path d="M1440 0L1375.71 0L1440 223.21z" fill="rgba(255, 255, 255, .1)"></path><path d="M1375.71 0L1440 223.21L1440 321.11L864.3900000000001 0z" fill="rgba(255, 255, 255, .075)"></path><path d="M864.39 0L1440 321.11L1440 334.04L334.96000000000004 0z" fill="rgba(255, 255, 255, .05)"></path><path d="M334.96000000000004 0L1440 334.04L1440 440.84000000000003L273.75000000000006 0z" fill="rgba(255, 255, 255, .025)"></path><path d="M0 560L139.23 560L0 486.95z" fill="rgba(0, 0, 0, .1)"></path><path d="M0 486.95L139.23 560L515.31 560L0 443.78z" fill="rgba(0, 0, 0, .075)"></path><path d="M0 443.78L515.31 560L874.81 560L0 395.13z" fill="rgba(0, 0, 0, .05)"></path><path d="M0 395.13L874.81 560L1048.3899999999999 560L0 155.35z" fill="rgba(0, 0, 0, .025)"></path></g><defs><mask id="SvgjsMask1748"><rect width="1440" height="560" fill="#ffffff"></rect></mask><linearGradient x1="50%" y1="100%" x2="50%" y2="0%" gradientUnits="userSpaceOnUse" id="SvgjsLinearGradient1749"><stop stop-color="#0e2a47" offset="0"></stop><stop stop-color="rgba(34, 111, 170, 1)" offset="1"></stop></linearGradient></defs></svg>